<svg xmlns="http://www.w3.org/2000/svg" width="48" height="48" viewBox="0 0 48 48">
    <g fill="#FFB843" fill-rule="evenodd">
        <path d="M24.353 17c-3.175 0-5.9 2.567-6.337 5.97-.126.976.504 1.877 1.405 2.013.077.011.152.017.229.017.81 0 1.515-.647 1.629-1.539.21-1.65 1.533-2.893 3.074-2.893.911 0 1.647-.797 1.647-1.784C26 17.8 25.264 17 24.353 17z"/>
        <path fill-rule="nonzero" d="M23.5 9C15.506 9 9 15.503 9 23.5 9 31.494 15.506 38 23.5 38S38 31.494 38 23.5 31.494 9 23.5 9zm0 24.663c-5.601 0-10.163-4.558-10.163-10.163S17.898 13.337 23.5 13.337 33.663 17.898 33.663 23.5 29.102 33.663 23.5 33.663z"/>
        <path d="M37.036 13a2.03 2.03 0 0 0 1.441-.595l1.926-1.927a2.037 2.037 0 0 0-2.88-2.881l-1.926 1.926A2.037 2.037 0 0 0 37.036 13zM9.521 35.597l-1.924 1.926a2.038 2.038 0 0 0 2.882 2.882l1.924-1.927a2.038 2.038 0 0 0-2.882-2.881zM38.476 35.597a2.034 2.034 0 0 0-2.88 0 2.038 2.038 0 0 0 0 2.881l1.925 1.927c.398.398.92.595 1.441.595a2.038 2.038 0 0 0 1.441-3.477l-1.927-1.926zM9.52 12.405c.397.398.92.595 1.441.595a2.037 2.037 0 0 0 1.442-3.477l-1.926-1.926a2.036 2.036 0 1 0-2.88 2.881l1.922 1.927zM45.903 22h-2.806c-1.16 0-2.097.894-2.097 2 0 1.106.937 2 2.097 2h2.806c1.16 0 2.097-.894 2.097-2 0-1.106-.937-2-2.097-2zM7 24c0-1.106-.937-2-2.097-2H2.097C.937 22 0 22.894 0 24c0 1.106.937 2 2.097 2h2.806C6.063 26 7 25.106 7 24zM24 41c-1.106 0-2 .937-2 2.097v2.806c0 1.16.894 2.097 2 2.097 1.106 0 2-.937 2-2.097v-2.806c0-1.16-.894-2.097-2-2.097zM24 7c1.106 0 2-.937 2-2.097V2.097C26 .937 25.106 0 24 0c-1.106 0-2 .937-2 2.097v2.806C22 6.063 22.894 7 24 7z"/>
    </g>
</svg>
