<svg width="97" height="56" viewBox="0 0 97 56" fill="none" xmlns="http://www.w3.org/2000/svg">
<path d="M85.8958 31.8454C85.6701 31.8454 77.3008 31.8454 77.3008 31.8454C77.4507 30.2332 77.5507 30.0945 77.5539 29.1304C77.5797 20.5305 71.8384 13.0172 63.44 11.1663C58.6531 10.1119 54.0839 10.8906 50.3031 12.9318C45.6904 6.06669 38.0482 1.43622 29.2887 0.900945C28.1617 0.746166 27.0202 0.654266 25.8513 0.654266C11.5746 0.654266 0 12.598 0 27.3214C0 34.9942 3.16168 41.8932 8.19199 46.7574C12.6403 51.6926 18.8169 54.8817 26.1302 55.4121C26.1302 55.4121 85.6701 55.7072 85.8958 55.7072C91.8838 55.7072 96.7368 50.2238 96.7368 43.7747C96.7368 37.3288 91.8822 31.8454 85.8958 31.8454Z" fill="white"/>
</svg>
